<svg xmlns="http://www.w3.org/2000/svg" fill="none" viewBox="0 0 26 26"><path d="M10.7342 18.78C10.7342 19.148 10.7982 19.476 10.9262 19.764C11.0462 20.044 11.2142 20.284 11.4302 20.484C11.6382 20.676 11.8782 20.824 12.1502 20.928C12.4222 21.024 12.7062 21.072 13.0022 21.072C13.2982 21.072 13.5822 21.024 13.8542 20.928C14.1262 20.824 14.3702 20.676 14.5862 20.484C14.7942 20.284 14.9622 20.044 15.0902 19.764C15.2102 19.476 15.2702 19.148 15.2702 18.78V14.868C15.2702 14.5 15.2102 14.176 15.0902 13.896C14.9622 13.608 14.7942 13.368 14.5862 13.176C14.3702 12.976 14.1262 12.828 13.8542 12.732C13.5822 12.628 13.2982 12.576 13.0022 12.576C12.7062 12.576 12.4222 12.628 12.1502 12.732C11.8782 12.828 11.6382 12.976 11.4302 13.176C11.2142 13.368 11.0462 13.608 10.9262 13.896C10.7982 14.176 10.7342 14.5 10.7342 14.868V18.78ZM11.4902 14.94C11.4902 14.444 11.6302 14.052 11.9102 13.764C12.1822 13.468 12.5462 13.32 13.0022 13.32C13.4662 13.32 13.8382 13.468 14.1182 13.764C14.3902 14.052 14.5262 14.444 14.5262 14.94V18.708C14.5262 19.204 14.3902 19.6 14.1182 19.896C13.8382 20.192 13.4662 20.34 13.0022 20.34C12.5462 20.34 12.1822 20.192 11.9102 19.896C11.6302 19.6 11.4902 19.204 11.4902 18.708V14.94Z" fill="black"></path><path d="M26 26L24.6141 6.69799H20.1514C20.0701 4.895 19.2774 3.19213 17.9387 1.94431C16.6 0.696494 14.8184 0 12.9654 0C11.1123 0 9.33076 0.696494 7.99201 1.94431C6.65327 3.19213 5.86064 4.895 5.77932 6.69799H1.78785L0 26H26ZM13 1.12335C14.548 1.13622 16.0312 1.72985 17.1412 2.78073C18.2512 3.83162 18.9025 5.25884 18.9595 6.76548H6.98508C7.03906 5.24842 7.69697 3.81132 8.81957 2.7583C9.94217 1.70527 11.4414 1.11893 13 1.12335ZM2.95203 7.8723H23.4776L24.6695 24.8527H1.26119L2.95203 7.8723Z" fill="black"></path></svg>
