<svg xmlns="http://www.w3.org/2000/svg" fill="none" viewBox="9.09 24.03 199.4 29.01"><path d="M19.1467 30.1667L20.2895 31.3072C20.9821 31.9994 21.4306 32.4982 21.5029 32.5723C21.585 32.7304 21.6279 32.9058 21.6279 33.0838C21.6279 33.2619 21.585 33.4373 21.5029 33.5953C21.4812 33.6676 20.5499 34.6201 19.0978 36.0715C17.6457 37.5228 16.7651 38.4753 16.6656 38.5476C16.5767 38.7046 16.5318 38.8827 16.5356 39.063C16.5394 39.2434 16.5919 39.4193 16.6873 39.5724C17.2596 40.2047 17.8631 40.8079 18.4957 41.3798C18.6501 41.46 18.821 41.5036 18.9949 41.5073C19.1689 41.5111 19.3415 41.4749 19.4993 41.4015C19.5698 41.3798 20.4288 40.5213 21.9749 38.9977C24.5463 36.4275 24.4523 36.5215 24.785 36.451C24.8794 36.4275 24.9782 36.4275 25.0726 36.451C25.3619 36.5215 25.4053 36.5215 26.3384 37.4523C27.2715 38.3832 27.2914 38.4048 27.3402 38.7175C27.3647 38.9102 27.3404 39.106 27.2697 39.2869C27.2462 39.3808 26.9804 39.6917 24.8357 41.7901C22.5264 44.1 22.4541 44.1723 22.3601 44.3603C22.2872 44.5202 22.2556 44.6958 22.2683 44.871C22.2809 45.0463 22.3373 45.2156 22.4324 45.3634C22.4541 45.4357 23.4559 46.4099 24.6476 47.6009L24.7923 47.6949L29.0093 43.48C32.8936 39.5471 33.2263 39.2652 33.2969 39.1206C33.3786 38.9794 33.4217 38.8192 33.4217 38.6561C33.4217 38.493 33.3786 38.3327 33.2969 38.1916C33.2263 38.0253 32.8936 37.6927 26.6983 31.5042C20.9351 25.7385 20.1702 24.974 20.0761 24.9035C19.862 24.7953 19.6155 24.7696 19.3836 24.8312C19.1232 24.8529 19.096 24.9035 18.0273 25.95C16.9586 26.9965 16.9785 26.9965 16.9079 27.3291C16.8796 27.5404 16.9122 27.7555 17.002 27.949C17.0725 28.0936 17.1828 28.2364 18.1213 29.1401L19.1449 30.1703" fill="black"></path><path d="M23.3691 47.5503L22.228 46.4044C21.5354 45.7122 21.0869 45.2134 21.0146 45.1393C20.9325 44.9809 20.8896 44.8052 20.8896 44.6269C20.8896 44.4485 20.9325 44.2728 21.0146 44.1145C21.0363 44.044 21.9676 43.0915 23.4197 41.6401C24.8718 40.1888 25.7524 39.2363 25.8248 39.164C25.9137 39.007 25.9586 38.8289 25.9548 38.6486C25.951 38.4682 25.8986 38.2923 25.8031 38.1392C25.7072 37.9729 24.1123 36.4004 23.9947 36.3318C23.8403 36.2516 23.6695 36.208 23.4955 36.2043C23.3215 36.2005 23.1489 36.2367 22.9911 36.3101C22.9188 36.3318 22.0598 37.1903 20.5137 38.7139C17.9423 41.2841 18.0381 41.1883 17.7054 41.2606C17.6104 41.2841 17.511 41.2841 17.416 41.2606C17.1285 41.1883 17.0851 41.1883 16.1502 40.2593C15.2153 39.3303 15.1972 39.3068 15.1466 38.9941C15.1227 38.8006 15.1476 38.6043 15.2189 38.4229C15.2406 38.329 15.5064 38.0199 17.6511 35.9197C19.9622 33.6116 20.0345 33.5393 20.1285 33.3514C20.2018 33.2297 20.2347 33.088 20.2226 32.9465C20.2496 32.7261 20.1899 32.5038 20.0562 32.3265C20.0345 32.2543 19.0309 31.2801 17.8392 30.089L17.6963 29.995L13.501 34.2099C9.61669 38.0904 9.28396 38.4284 9.21162 38.573C9.12988 38.7145 9.08685 38.875 9.08685 39.0384C9.08685 39.2017 9.12988 39.3623 9.21162 39.5038C9.28396 39.67 9.61669 40.0026 15.812 46.1912C21.5806 51.9568 22.3383 52.7159 22.4396 52.7882C22.651 52.9035 22.8976 52.937 23.1322 52.8822C23.3926 52.8605 23.4197 52.8099 24.4884 51.7634C25.5571 50.7169 25.5373 50.7169 25.6078 50.3844C25.6361 50.173 25.6035 49.9579 25.5137 49.7644C25.4414 49.6198 25.3329 49.477 24.3944 48.5733L23.3691 47.5485" fill="black"></path><path d="M116.77 25.2271H127.455V29.1473H121.014V36.3462H127.151V40.2593H121.014V52.5948H116.753V25.2271H116.77Z" fill="black"></path><path d="M140.728 48.2769C140.728 49.5945 140.728 51.8248 140.811 52.6147H136.958C136.873 52.2261 136.721 51.364 136.686 51.0585C135.963 52.3598 134.809 52.9346 133.204 52.9346C130.025 52.9346 128.723 49.9777 128.723 46.7894V46.4171C128.723 41.1955 132.256 39.7929 136.095 39.7929H136.585V37.0728C136.585 35.3991 136.383 34.4701 135.097 34.4701C133.846 34.4701 133.558 35.4515 133.558 36.7691V37.1306H129.417V36.8252C129.417 33.767 130.6 31.0415 135.267 31.0415C139.357 31.0415 140.795 33.3242 140.795 36.7529V48.3203H140.728V48.2878V48.2769ZM136.585 43.0047H135.862C133.934 43.0047 132.648 43.7475 132.648 46.3665V46.728C132.648 48.2317 133.191 49.2782 134.526 49.2782C135.947 49.2782 136.573 48.2986 136.573 45.4429V43.0047H136.585Z" fill="black"></path><path d="M147.439 45.9779V46.9593C147.439 48.2588 147.811 49.3921 149.18 49.3921C150.314 49.3921 150.838 48.6691 150.838 47.2973C150.838 45.9255 150.448 44.982 147.878 43.321C144.954 41.4467 143.551 39.9086 143.551 36.883C143.551 33.2845 145.479 31.0993 149.18 31.0993C153.171 31.0993 154.811 33.3116 154.811 37.1993V38.0614H150.719V36.7601C150.719 35.2726 150.213 34.6979 149.215 34.6979C148.166 34.6979 147.777 35.4588 147.777 36.5739C147.777 37.756 148.166 38.3145 150.093 39.5309C153.813 41.8805 155.115 43.3843 155.115 46.8979C155.115 50.9718 153.07 53.0322 149.097 53.0322C144.328 53.0412 143.22 50.0192 143.22 47.0099V46.0628L147.446 45.9779H147.439Z" fill="black"></path><path d="M161.676 24.0269V33.1362C162.318 31.9018 163.519 31.074 165.631 31.074C168.86 31.074 169.891 33.5068 169.891 36.5486V52.6346H165.665V37.6475C165.665 36.0932 165.361 34.8424 163.788 34.8424C162.132 34.8424 161.692 35.907 161.692 38.3741V52.6526H157.466V24.0269H161.676Z" fill="black"></path><path d="M177.669 31.3777H173.443V52.602H177.669V31.3777Z" fill="black"></path><path d="M177.685 25.65H173.459V30.1613H177.685V25.65Z" fill="black"></path><path d="M193.105 37.9187V46.0972C193.105 50.6428 190.823 52.9744 186.833 52.9744C182.69 52.9744 180.645 50.5741 180.645 46.0972V37.7144C180.645 33.1182 183.247 31.0577 186.935 31.0577C190.806 31.074 193.105 33.4236 193.105 37.9187ZM184.888 37.6475V46.2237C184.888 47.9136 185.396 49.1824 186.917 49.1824C188.338 49.1824 188.861 48.1341 188.861 46.1406V37.5969C188.861 35.9414 188.439 34.7575 186.871 34.7575C185.497 34.8262 184.888 35.8058 184.888 37.6475Z" fill="black"></path><path d="M196.047 37.9349C196.047 33.608 196.047 32.341 196.031 31.3777H200.07C200.162 32.0158 200.207 32.6597 200.206 33.3044C200.832 32.0717 201.964 31.0234 204.128 31.0234C206.716 31.0234 208.49 32.5778 208.49 36.6264V52.6111H204.264V37.4108C204.264 35.4841 203.622 34.8262 202.456 34.8262C200.951 34.8262 200.286 35.6196 200.286 38.526V52.6527H196.058L196.041 37.9349H196.047Z" fill="black"></path><path d="M36.3475 25.1837H47.0347V29.1039H40.5916V36.3028H46.7291V40.2231H40.5916V52.5749H36.3656V25.1837H36.3475Z" fill="black"></path><path d="M61.1343 46.4243C61.1343 49.5331 61.1343 51.5104 61.1506 52.6436H57.1108C57.0176 51.9717 56.9722 51.294 56.9752 50.6157C56.2319 52.4574 54.76 52.9653 52.9968 52.9653C51.0077 52.9653 48.7708 52.0363 48.7708 47.4401V31.3849H53.0023V46.3394C53.0023 48.2823 53.5592 49.1788 54.8449 49.1788C56.2319 49.1788 56.8902 48.3004 56.8902 45.564V31.403H61.1217L61.1379 46.4261L61.1343 46.4243Z" fill="black"></path><path d="M63.1108 31.3686H65.3586V26.2645H69.5865V31.3686H72.2574V35.0846H69.5883V47.6244C69.5883 48.6203 69.7239 49.4318 71.0078 49.4318C71.3804 49.4318 71.9373 49.4156 72.1742 49.3144V52.49C71.4509 52.8515 70.3821 52.9129 69.5883 52.9129C66.9174 52.9129 65.3604 52.0508 65.3604 48.3673V35.0521H63.1108V31.3686Z" fill="black"></path><path d="M86.5287 46.4243C86.5287 49.5331 86.5287 51.5104 86.545 52.6436H82.5052C82.4119 51.9717 82.3666 51.294 82.3695 50.6157C81.6263 52.4574 80.1543 52.9653 78.3912 52.9653C76.402 52.9653 74.1633 52.0363 74.1633 47.4401V31.3849H78.3912V46.3394C78.3912 48.2823 78.9482 49.1788 80.2339 49.1788C81.6209 49.1788 82.2791 48.3004 82.2791 45.564V31.403H86.507L86.5233 46.4261L86.5287 46.4243Z" fill="black"></path><path d="M90.0966 38.5838C90.0966 35.0521 90.1128 33.5646 90.0785 31.3849H94.0695C94.0858 31.7735 94.187 33.6821 94.187 34.8189C95.0496 31.9632 96.876 31.0848 98.8887 31.0848V36.3064C96.4709 36.3064 94.3407 36.9318 94.3407 41.2732V52.6472H90.1128L90.0966 38.5874V38.5838Z" fill="black"></path><path d="M104.636 43.1113V46.2237C104.636 47.8793 105.008 49.3831 106.625 49.3831C108.299 49.3831 108.536 47.8793 108.536 46.3412V46.2237H112.659V46.3087C112.659 48.5553 112.169 52.9328 106.759 52.9328C101.348 52.9328 100.536 49.5855 100.536 45.2947V38.3633C100.536 35.457 101.449 31.0632 106.724 31.0632C111.272 31.0632 112.744 34.1231 112.744 38.3308V43.1638H104.654V43.1113H104.636ZM108.681 39.8002V37.6204C108.681 35.6775 108.223 34.5786 106.737 34.5786C105.366 34.5786 104.708 35.5582 104.708 37.6204V39.7893H108.686L108.681 39.8002Z" fill="black"></path></svg>
