<svg width="41" height="47" viewBox="0 0 41 47" fill="none" xmlns="http://www.w3.org/2000/svg">
<path d="M16.4845 8.90942L18.4472 10.8022C19.6367 11.9511 20.4069 12.779 20.5311 12.902C20.6721 13.1642 20.7457 13.4553 20.7457 13.7508C20.7457 14.0463 20.6721 14.3375 20.5311 14.5998C20.4938 14.7197 18.8944 16.3005 16.4007 18.7093C13.9069 21.118 12.3945 22.6988 12.2236 22.8188C12.071 23.0793 11.9938 23.3748 12.0004 23.6741C12.0069 23.9734 12.0969 24.2655 12.2609 24.5196C13.2436 25.5689 14.2801 26.57 15.3665 27.5192C15.6318 27.6522 15.9251 27.7246 16.224 27.7308C16.5228 27.7371 16.8191 27.677 17.0901 27.5552C17.2112 27.5192 18.6864 26.0944 21.3416 23.5657C25.7578 19.3002 25.5963 19.4562 26.1677 19.3392C26.3298 19.3002 26.4994 19.3002 26.6615 19.3392C27.1584 19.4562 27.2329 19.4562 28.8354 21.001C30.4379 22.5458 30.472 22.5818 30.5559 23.1008C30.5979 23.4205 30.5563 23.7454 30.4348 24.0456C30.3944 24.2016 29.9379 24.7176 26.2547 28.2002C22.2888 32.0337 22.1646 32.1537 22.0031 32.4656C21.878 32.731 21.8238 33.0225 21.8455 33.3133C21.8672 33.6042 21.9641 33.8851 22.1273 34.1305C22.1646 34.2504 23.8851 35.8672 25.9317 37.844L26.1801 38L33.4223 31.0048C40.0931 24.4776 40.6645 24.0096 40.7857 23.7697C40.9261 23.5354 41 23.2695 41 22.9988C41 22.7281 40.9261 22.4621 40.7857 22.2279C40.6645 21.9519 40.0931 21.4 29.4534 11.1292C19.5559 1.56029 18.2423 0.291438 18.0808 0.174452C17.7129 -0.00509594 17.2896 -0.0477968 16.8913 0.054468C16.4441 0.0904638 16.3975 0.174446 14.5622 1.91124C12.7268 3.64804 12.7609 3.64804 12.6398 4.19997C12.5912 4.55079 12.6472 4.90773 12.8013 5.22886C12.9224 5.46883 13.1118 5.7058 14.7236 7.20563L16.4814 8.91542" fill="black"/>
<path d="M23.7075 38.1147L21.8134 36.2143C20.6638 35.0663 19.9193 34.239 19.7993 34.1161C19.663 33.8535 19.5918 33.562 19.5918 33.2663C19.5918 32.9705 19.663 32.6791 19.7993 32.4165C19.8353 32.2996 21.3812 30.7199 23.7916 28.3129C26.2019 25.9059 27.6638 24.3262 27.7838 24.2063C27.9314 23.946 28.006 23.6507 27.9996 23.3516C27.9933 23.0525 27.9063 22.7606 27.7478 22.5067C27.5887 22.231 24.9412 19.6231 24.7461 19.5092C24.4897 19.3764 24.2061 19.304 23.9173 19.2978C23.6285 19.2916 23.3421 19.3516 23.0802 19.4733C22.9601 19.5092 21.5343 20.9331 18.9678 23.4599C14.6994 27.7224 14.8585 27.5635 14.3061 27.6834C14.1484 27.7224 13.9836 27.7224 13.8259 27.6834C13.3486 27.5635 13.2766 27.5635 11.7247 26.0228C10.1728 24.4821 10.1428 24.4431 10.0587 23.9246C10.0191 23.6038 10.0604 23.2782 10.1788 22.9773C10.2148 22.8215 10.6561 22.3089 14.2161 18.8258C18.0523 14.998 18.1724 14.8781 18.3284 14.5664C18.45 14.3645 18.5046 14.1296 18.4845 13.8949C18.5294 13.5294 18.4304 13.1608 18.2084 12.8668C18.1724 12.7469 16.5064 11.1312 14.5283 9.15588L14.2911 9L7.32717 15.9902C0.879494 22.4258 0.327177 22.9863 0.207109 23.2261C0.0714291 23.4608 0 23.727 0 23.998C0 24.269 0.0714291 24.5352 0.207109 24.7699C0.327177 25.0456 0.879494 25.5972 11.1634 35.8606C20.7388 45.4226 21.9965 46.6816 22.1646 46.8015C22.5156 46.9928 22.9249 47.0482 23.3143 46.9573C23.7465 46.9214 23.7916 46.8374 25.5656 45.1019C27.3396 43.3663 27.3066 43.3663 27.4236 42.8148C27.4706 42.4642 27.4165 42.1076 27.2675 41.7867C27.1475 41.5469 26.9674 41.3101 25.4095 39.8113L23.7075 38.1117" fill="black"/>
</svg>
